<!-- Generator: Adobe Illustrator 19.0.0, SVG Export Plug-In  -->
<svg version="1.1"
	 xmlns="http://www.w3.org/2000/svg" xmlns:xlink="http://www.w3.org/1999/xlink" xmlns:a="http://ns.adobe.com/AdobeSVGViewerExtensions/3.0/"
	 x="0px" y="0px" width="50px" height="36.9px" viewBox="0 0 50 36.9" style="enable-background:new 0 0 50 36.9;"
	 xml:space="preserve">
    <path id="XMLID_24_" class="st0" d="M49.8,17.2L42,5.7c-1.6-2.4-4.1-4.2-6.9-5.1c-2.8-0.9-5.8-0.8-8.5,0.3l-7.2,2.7
        c-0.5,0.2-0.8,0.8-0.6,1.3c0.2,0.5,0.8,0.8,1.3,0.6l7.2-2.7c4.8-1.8,10.2-0.2,13.1,4.1l4.8,7.1l-8.6-6.1
        c-1.8-1.3-4.1-1.6-6.2-0.9l-26,8.9c-0.9,0.3-1.9-0.2-2.2-1.1c-0.4-1.2,0.2-2.4,1.3-2.8l8.9-3.4c0.5-0.2,0.8-0.8,0.6-1.3
        c-0.2-0.5-0.8-0.8-1.3-0.6L2.7,10c-2.1,0.8-3.2,3.2-2.5,5.3c0.7,1.9,2.8,2.9,4.7,2.3l26-8.9c1.5-0.5,3.2-0.3,4.5,0.6l13,9.2
        c0.2,0.1,0.4,0.2,0.6,0.2c0.2,0,0.5-0.1,0.7-0.3C50,18.1,50.1,17.6,49.8,17.2z"/>
    <path id="XMLID_21_" class="st0" d="M16.8,5.2c-0.2-0.2-0.4-0.3-0.7-0.3c-0.3,0-0.5,0.1-0.7,0.3c-0.2,0.2-0.3,0.4-0.3,0.7
        c0,0.3,0.1,0.5,0.3,0.7c0.2,0.2,0.4,0.3,0.7,0.3c0.3,0,0.5-0.1,0.7-0.3c0.2-0.2,0.3-0.4,0.3-0.7C17.1,5.6,17,5.4,16.8,5.2z"/>
    <path id="XMLID_18_" class="st0" d="M42.1,26.5L42.1,26.5c-1.2-0.4-2.2-1.1-2.9-2.1c0.7-0.6,1.4-1.2,2.1-1.9c0.4-0.4,0.4-1,0-1.4
        c-0.4-0.4-1-0.4-1.4,0c-3.8,3.8-8.7,6.2-14,6.9c0,0-0.1,0-0.1,0c-1,0.1-1.9,0.2-2.9,0.2l0,0l0,0c-1,0-2-0.1-2.9-0.2
        c0,0-0.1,0-0.1,0c-5.3-0.7-10.2-3-14-6.9c-0.4-0.4-1-0.4-1.4,0c-0.4,0.4-0.4,1,0,1.4c0.7,0.7,1.4,1.3,2.1,1.9
        c-0.7,1-1.7,1.7-2.9,2.1l0,0c-0.5,0.2-0.8,0.7-0.6,1.2c0.1,0.4,0.5,0.7,0.9,0.7c0.1,0,0.2,0,0.3,0l0,0c1.6-0.5,2.9-1.5,3.9-2.8
        c0.3,0.2,0.7,0.5,1,0.7c-0.5,1.5-1.6,2.7-3.1,3.3l-0.3,0.1C5.3,29.9,5,30.5,5.2,31c0.2,0.4,0.5,0.6,0.9,0.6c0.1,0,0.2,0,0.4-0.1
        l0.3-0.1c1.9-0.8,3.4-2.3,4.1-4.1c0.4,0.2,0.8,0.4,1.1,0.6c-0.1,1.7-1.1,3.2-2.6,4l-0.1,0c-0.5,0.2-0.7,0.8-0.4,1.3
        c0.2,0.3,0.5,0.5,0.9,0.5c0.2,0,0.3,0,0.5-0.1l0.1,0c1.9-1,3.2-2.8,3.6-4.9c0.4,0.2,0.8,0.3,1.3,0.4c-0.1,1.5-0.7,3-1.7,4.2
        c-0.4,0.4-0.3,1,0.1,1.4c0.2,0.2,0.4,0.3,0.7,0.3c0.3,0,0.5-0.1,0.7-0.3c1.3-1.4,2-3.1,2.2-5c0.6,0.1,1.1,0.2,1.7,0.3
        c-0.1,1.5-0.6,3-1.4,4.3l-0.1,0.2c-0.3,0.5-0.1,1.1,0.3,1.3c0.2,0.1,0.3,0.1,0.5,0.1c0.3,0,0.7-0.2,0.8-0.5l0.1-0.2
        c0.9-1.5,1.4-3.3,1.6-5c0.4,0,0.8,0.1,1.2,0.1V36c0,0.5,0.4,1,1,1s1-0.4,1-1v-5.8c0.4,0,0.8,0,1.2-0.1c0.2,1.8,0.7,3.5,1.6,5
        l0.1,0.2c0.2,0.3,0.5,0.5,0.8,0.5c0.2,0,0.3,0,0.5-0.1c0.5-0.3,0.6-0.9,0.3-1.3l-0.1-0.2c-0.8-1.3-1.2-2.8-1.4-4.3
        c0.6-0.1,1.1-0.2,1.7-0.3c0.2,1.8,0.9,3.6,2.2,5c0.2,0.2,0.5,0.3,0.7,0.3c0.2,0,0.5-0.1,0.7-0.3c0.4-0.4,0.4-1,0.1-1.4
        c-1.1-1.1-1.7-2.6-1.7-4.2c0.4-0.1,0.8-0.3,1.3-0.4c0.3,2.1,1.6,3.9,3.6,4.9l0.1,0c0.1,0.1,0.3,0.1,0.5,0.1
        c0.4,0,0.7-0.2,0.9-0.5c0.2-0.5,0.1-1.1-0.4-1.3l-0.1,0c-1.5-0.8-2.5-2.3-2.6-4c0.4-0.2,0.8-0.4,1.1-0.6c0.7,1.9,2.2,3.4,4.1,4.1
        l0.3,0.1c0.1,0,0.2,0.1,0.4,0.1c0.4,0,0.8-0.2,0.9-0.6c0.2-0.5,0-1.1-0.5-1.3l-0.3-0.1c-1.5-0.6-2.6-1.8-3.1-3.3
        c0.3-0.2,0.7-0.4,1-0.7c1,1.3,2.3,2.3,3.9,2.8l0,0c0.1,0,0.2,0,0.3,0c0.4,0,0.8-0.3,0.9-0.7C42.9,27.3,42.6,26.7,42.1,26.5z"/>
</svg>
