<!-- Generator: Adobe Illustrator 19.0.0, SVG Export Plug-In  -->
<svg version="1.1"
	 xmlns="http://www.w3.org/2000/svg" xmlns:xlink="http://www.w3.org/1999/xlink" xmlns:a="http://ns.adobe.com/AdobeSVGViewerExtensions/3.0/"
	 x="0px" y="0px" width="50px" height="40.8px" viewBox="0 0 50 40.8" style="enable-background:new 0 0 50 40.8;"
	 xml:space="preserve">
<path id="XMLID_15_" class="st0" d="M3.8,0C1.7,0,0,1.7,0,3.8v5.1c0,0.7,0.6,1.3,1.3,1.3h6.3V3.8C7.5,1.7,5.8,0,3.8,0z M20,32.9V28
	h22.5V7.6C42.5,3.4,39.1,0,35,0H8.7C9.5,1.1,10,2.4,10,3.8v29.3c0,3.1,2.7,5.5,5.8,5C18.3,37.8,20,35.4,20,32.9z M22.5,30.6v2.5
	c0,4.2-3.4,7.6-7.5,7.6h26.3c4.8,0,8.8-4,8.8-8.9c0-0.7-0.6-1.3-1.3-1.3H22.5z"/>
</svg>
