<!-- Generator: Adobe Illustrator 19.0.0, SVG Export Plug-In  -->
<svg version="1.1"
	 xmlns="http://www.w3.org/2000/svg" xmlns:xlink="http://www.w3.org/1999/xlink" xmlns:a="http://ns.adobe.com/AdobeSVGViewerExtensions/3.0/"
	 x="0px" y="0px" width="50px" height="50px" viewBox="0 0 50 50" style="enable-background:new 0 0 50 50;" xml:space="preserve">
    <path id="Shape_1_" class="st0" d="M37.5,0C34.3,0,31,0.6,28,1.6c-3.3,1.1-6.5,2.6-9.4,4.6c-2.5,1.6-4.7,3.6-6.7,5.8
        c-0.1,0.1-0.2,0.2-0.2,0.4c-0.7,2.8-1.2,5.6-1.6,8.4c-0.6-0.7-0.9-1.5-0.9-2.3c0-0.3-0.2-0.6-0.4-0.7c-0.3-0.1-0.6-0.1-0.8,0
        c-0.3,0.2-7,4.6-4.6,18.1c-2,4.2-3.1,8.8-3.3,13.5c0,0.3,0.2,0.6,0.5,0.8s0.6,0.1,0.9-0.1l4.2-3.3c0.1-0.1,0.2-0.3,0.3-0.4
        c0.6-2.2,1.4-4.3,2.4-6.3c0.6,0.1,1.1,0.1,1.7,0.1c2.7-0.1,5.4-0.6,7.9-1.5c0.4-0.1,0.6-0.5,0.6-0.9c-0.1-0.4-0.4-0.7-0.8-0.7
        c-1.1-0.1-2.1-0.7-2.7-1.7c2.6,0.8,5.3,0.8,7.9,0c0.1,0,0.2-0.1,0.3-0.1c3.9-2.8,7.5-5.9,10.9-9.3c0.2-0.2,0.3-0.6,0.2-0.9
        c-0.1-0.3-0.4-0.5-0.8-0.5c-1.6-0.1-3.2-0.5-4.7-1.2c2.4,0.2,5.6,0.1,7.7-1.5c2.6-1.9,5.7-5.3,9.3-10.2c1.7-2.4,3.1-5,4.3-7.7
        c0.1-0.3,0-0.8-0.3-1C49.5,2.6,46,0,37.5,0z M4.3,45.4l-2.5,2c0.4-3.9,1.4-7.6,3.1-11.1c2.9-5.8,14.7-19.5,25.3-24.4
        c-5.8,4.1-16.5,13.1-23.5,27C5.7,40.9,4.9,43.1,4.3,45.4z M44.3,10.3c-1.2,1.6-2.4,3-3.5,4.3c-2.4,0.7-5,1.1-7.5,1.2
        c-0.5,0-0.8,0.4-0.8,0.8s0.4,0.8,0.8,0.8c1.9,0,3.7-0.2,5.6-0.6c-1.1,1.2-2.3,2.3-3.6,3.3c-3,2.2-9.2,0.7-9.3,0.7
        c-0.3-0.1-0.7,0.1-0.9,0.3c-0.2,0.3-0.2,0.7,0,1c1.6,1.9,3.8,3.2,6.3,3.5c-3,2.8-6.1,5.4-9.3,7.8c-5.2,1.4-8.2-0.6-8.3-0.7
        c-0.3-0.2-0.7-0.2-0.9,0c-0.3,0.2-0.4,0.5-0.4,0.9c0.2,1.6,1.1,3,2.4,3.9C13,38,11,38.2,9,38.1c5.4-9.9,13-18.4,22.2-25
        c0.7-0.5,0.9-1.4,0.5-2.2c-0.4-0.8-1.4-1.1-2.2-0.7C19.3,15,8.8,26.8,4.6,33.4c-0.9-7.9,1.6-11.8,3.1-13.4
        c0.5,1.3,1.4,2.5,2.6,3.3c0.3,0.2,0.6,0.2,0.9,0c0.3-0.1,0.4-0.4,0.4-0.7c0-2.9,1.3-8.5,1.6-9.6c0.7-0.8,1.5-1.6,2.3-2.3
        C15.2,12,15,13.5,15,15c0,0.5,0.4,0.8,0.8,0.8c0.5,0,0.8-0.4,0.8-0.8c0-2.2,0.5-4.3,1.3-6.4c2.2-1.6,4.5-3,7-4.1
        c-0.3,0.6-0.5,1.3-0.7,1.9c-0.1,0.4,0.2,0.9,0.6,1c0.4,0.1,0.9-0.2,1-0.6c0.3-1.2,0.9-2.3,1.6-3.3c3.2-1.2,6.7-1.8,10.1-1.9
        c6.1,0,9.4,1.4,10.6,2C47.1,6,45.8,8.3,44.3,10.3z"/>
</svg>
