<!-- Generator: Adobe Illustrator 19.0.0, SVG Export Plug-In  -->
<svg version="1.1"
	 xmlns="http://www.w3.org/2000/svg" xmlns:xlink="http://www.w3.org/1999/xlink" xmlns:a="http://ns.adobe.com/AdobeSVGViewerExtensions/3.0/"
	 x="0px" y="0px" width="50px" height="50px" viewBox="0 0 50 50" style="enable-background:new 0 0 50 50;" xml:space="preserve">
<path id="XMLID_15_" class="st0" d="M13.3,13.6c-2,0.6-3.6,2.1-4.2,4L0,44.9l1.4,1.4l14.7-14.7c-0.3-0.6-0.5-1.3-0.5-2
	c0-2.6,2.1-4.7,4.7-4.7s4.7,2.1,4.7,4.7s-2.1,4.7-4.7,4.7c-0.7,0-1.4-0.2-2-0.5L3.6,48.6L5.1,50l27.3-9.1c2-0.7,3.5-2.2,4-4.2
	l4.2-14.8L28.1,9.4L13.3,13.6L13.3,13.6z M48.6,7.2l-5.9-5.9c-1.8-1.8-4.8-1.8-6.6,0l-5.5,5.5l12.5,12.5l5.5-5.5
	C50.5,12,50.5,9.1,48.6,7.2z"/>
</svg>