<svg version="1.1"
	 xmlns="http://www.w3.org/2000/svg" xmlns:xlink="http://www.w3.org/1999/xlink" xmlns:a="http://ns.adobe.com/AdobeSVGViewerExtensions/3.0/"
	 x="0px" y="0px" width="50.1px" height="50px" viewBox="0 0 50.1 50" style="enable-background:new 0 0 50.1 50;"
	 xml:space="preserve">
<path id="XMLID_15_" class="st0" d="M11.6,32L9,48.2c-0.1,0.6,0.2,1.2,0.6,1.5c0.5,0.3,1.1,0.4,1.7,0.1L25,42.2l13.8,7.6
	c0.2,0.1,0.5,0.2,0.8,0.2c0.3,0,0.6-0.1,0.9-0.3c0.5-0.3,0.7-0.9,0.6-1.5L38.4,32l11.2-11.5c0.4-0.4,0.6-1,0.4-1.6
	c-0.2-0.6-0.7-1-1.2-1l-15.4-2.4L26.5,0.8c-0.5-1.1-2.3-1.1-2.8,0l-6.9,14.7L1.3,17.9c-0.6,0.1-1.1,0.5-1.2,1
	c-0.2,0.6,0,1.2,0.4,1.6L11.6,32z"/>
</svg>