<!-- Generator: Adobe Illustrator 19.0.0, SVG Export Plug-In  -->
<svg version="1.1"
	 xmlns="http://www.w3.org/2000/svg" xmlns:xlink="http://www.w3.org/1999/xlink" xmlns:a="http://ns.adobe.com/AdobeSVGViewerExtensions/3.0/"
	 x="0px" y="0px" width="50px" height="50px" viewBox="0 0 50 50" style="enable-background:new 0 0 50 50;" xml:space="preserve">
<path id="XMLID_15_" class="st0" d="M48.5,27.9c1-1.3,1.5-2.9,1.5-4.9c0-3.7-3.1-7.1-7.1-7.1H36c0.9-1.7,2-3.8,2-6.8
	C38.1,3.4,35.8,0,30,0c-2.9,0-4,3.7-4.6,6.6c-0.3,1.7-0.6,3.3-1.6,4.3c-2.3,2.3-5.8,7.9-7.9,9c-0.2,0.1-0.5,0.2-0.8,0.2
	c-0.6-0.8-1.5-1.4-2.6-1.4H3.1c-1.7,0-3.1,1.4-3.1,3.1v25C0,48.6,1.4,50,3.1,50h9.4c1.7,0,3.1-1.4,3.1-3.1V46c3.2,0,9.8,4,17.3,4
	c0.5,0,3.7,0,4,0c5.8,0,9-3.5,8.8-8.8c1.5-1.7,2.2-4.2,1.8-6.6C48.8,32.8,49,30.1,48.5,27.9z M3.1,46.9v-25h9.4v25H3.1z M44.5,27
	c1.6,1.1,1.6,5.8-0.5,6.9c1.3,2.2,0.1,5.2-1.5,6.1c0.8,5.1-1.9,6.9-5.6,6.9c-0.3,0-3.6,0-4,0c-7.1,0-13.2-4-17.3-4V23
	c3.7,0,7.1-6.6,10.4-9.9c3-3,2-8,4-9.9c5,0,5,3.5,5,6c0,4.1-3,6-3,9.9h10.9c2.2,0,4,2,4,4C46.9,25,46.1,26.6,44.5,27L44.5,27z
	 M10.2,42.2c0,1.3-1,2.3-2.3,2.3s-2.3-1-2.3-2.3s1-2.3,2.3-2.3S10.2,40.9,10.2,42.2z"/>
</svg>
